<svg width="571" height="231" viewBox="0 0 571 231" fill="none" xmlns="http://www.w3.org/2000/svg">
<mask id="mask0_307_621" style="mask-type:alpha" maskUnits="userSpaceOnUse" x="0" y="0" width="571" height="231">
<path d="M318.983 74.2154C320.089 74.2154 320.986 73.3186 320.986 72.2124C320.986 71.1062 320.089 70.2095 318.983 70.2095C317.877 70.2095 316.98 71.1062 316.98 72.2124C316.98 73.3186 317.877 74.2154 318.983 74.2154Z" fill="#4285F4"/>
<path d="M240.308 87.647L252.525 125.173L238.293 88.3657L240.308 87.647Z" fill="#4285F4"/>
<path d="M161.655 121.179L197.141 149.244L160.359 122.887L161.655 121.179Z" fill="#4285F4"/>
<path d="M116.014 179.924L165.166 190.929L115.59 182.022L116.014 179.924Z" fill="#4285F4"/>
<path d="M453.41 182.022L403.822 190.929L452.986 179.913L453.41 182.022Z" fill="#4285F4"/>
<path d="M408.629 122.887L371.848 149.232L407.345 121.179L408.629 122.887Z" fill="#4285F4"/>
<path d="M330.707 88.3657L316.475 125.173L328.692 87.647L330.707 88.3657Z" fill="#4285F4"/>
<path d="M286.137 126.54L280.281 123.618L276.264 128.79L277.23 122.31L271.068 120.083L277.525 118.999L277.748 112.46L280.764 118.269L287.056 116.442L282.461 121.12L286.137 126.54Z" fill="#4285F4"/>
<path d="M389.531 212.914L392.288 211.23L391.181 208.213L393.619 210.311L396.152 208.319L394.915 211.3L397.59 213.091L394.385 212.832L393.49 215.931L392.748 212.797L389.531 212.914Z" fill="#4285F4"/>
<path d="M168.158 217.368L163.74 217.568L163.069 221.928L161.525 217.804L157.166 218.511L160.618 215.754L158.603 211.83L162.279 214.258L165.389 211.135L164.211 215.377L168.158 217.368Z" fill="#4285F4"/>
<path d="M208.299 162.228L205.801 160.013L203.138 162.016L204.481 158.964L201.748 157.055L205.07 157.374L206.036 154.192L206.755 157.444L210.089 157.385L207.215 159.07L208.299 162.228Z" fill="#4285F4"/>
<path d="M284.924 154.522C284.924 155.641 284.017 156.549 282.898 156.549C281.778 156.549 280.871 155.641 280.871 154.522C280.871 153.403 281.778 152.496 282.898 152.496C284.017 152.496 284.924 153.403 284.924 154.522Z" fill="#4285F4"/>
<path d="M392.37 174.787C392.37 175.459 391.828 176.001 391.157 176.001C390.485 176.001 389.943 175.459 389.943 174.787C389.943 174.116 390.485 173.574 391.157 173.574C391.828 173.574 392.37 174.116 392.37 174.787Z" fill="#4285F4"/>
<path d="M181.53 207.235C181.979 207.235 182.343 206.871 182.343 206.422C182.343 205.973 181.979 205.609 181.53 205.609C181.081 205.609 180.717 205.973 180.717 206.422C180.717 206.871 181.081 207.235 181.53 207.235Z" fill="#4285F4"/>
<path d="M172 104.849C173.008 104.849 173.826 104.031 173.826 103.023C173.826 102.014 173.008 101.196 172 101.196C170.991 101.196 170.174 102.014 170.174 103.023C170.174 104.031 170.991 104.849 172 104.849Z" fill="#4285F4"/>
<path d="M229.788 124.513C230.907 124.513 231.815 123.606 231.815 122.486C231.815 121.367 230.907 120.46 229.788 120.46C228.669 120.46 227.762 121.367 227.762 122.486C227.762 123.606 228.669 124.513 229.788 124.513Z" fill="#4285F4"/>
<path d="M342.913 150.87C342.913 151.541 342.371 152.083 341.7 152.083C341.028 152.083 340.486 151.541 340.486 150.87C340.486 150.198 341.028 149.656 341.7 149.656C342.371 149.656 342.913 150.198 342.913 150.87Z" fill="#4285F4"/>
<path d="M341.286 215.542C341.286 216.107 340.827 216.555 340.273 216.555C339.719 216.555 339.26 216.095 339.26 215.542C339.26 214.988 339.719 214.528 340.273 214.528C340.827 214.528 341.286 214.988 341.286 215.542Z" fill="#4285F4"/>
<path d="M158.428 141.539L150.405 142.528L149.792 150.587L146.376 143.259L138.518 145.168L144.432 139.654L140.191 132.785L147.259 136.696L152.49 130.534L150.947 138.475L158.428 141.539Z" fill="#4285F4"/>
<path d="M414.273 159.789L410.385 159.53L409.372 163.3L408.405 159.518L404.518 159.718L407.816 157.633L406.426 153.992L409.419 156.49L412.446 154.039L411.009 157.656L414.273 159.789Z" fill="#4285F4"/>
<path d="M362.777 120.46L358.029 116.926L353.634 120.884L355.519 115.276L350.395 112.319L356.321 112.378L357.546 106.593L359.313 112.248L365.204 111.624L360.373 115.052L362.777 120.46Z" fill="#4285F4"/>
<path d="M124.568 210.876C125.127 210.876 125.581 210.422 125.581 209.863C125.581 209.303 125.127 208.85 124.568 208.85C124.008 208.85 123.555 209.303 123.555 209.863C123.555 210.422 124.008 210.876 124.568 210.876Z" fill="#4285F4"/>
<path d="M410.22 227.713C410.22 228.279 409.76 228.726 409.207 228.726C408.653 228.726 408.193 228.267 408.193 227.713C408.193 227.159 408.653 226.7 409.207 226.7C409.76 226.7 410.22 227.159 410.22 227.713Z" fill="#4285F4"/>
<path d="M452.786 195.477C453.684 195.477 454.412 194.749 454.412 193.851C454.412 192.953 453.684 192.225 452.786 192.225C451.888 192.225 451.16 192.953 451.16 193.851C451.16 194.749 451.888 195.477 452.786 195.477Z" fill="#4285F4"/>
<path d="M425.219 128.767C425.219 129.78 424.406 130.593 423.393 130.593C422.379 130.593 421.566 129.78 421.566 128.767C421.566 127.753 422.379 126.94 423.393 126.94C424.406 126.94 425.219 127.753 425.219 128.767Z" fill="#4285F4"/>
<path d="M366.016 135.659C366.016 136.897 365.014 137.886 363.789 137.886C362.564 137.886 361.562 136.885 361.562 135.659C361.562 134.434 362.564 133.433 363.789 133.433C365.014 133.433 366.016 134.434 366.016 135.659Z" fill="#4285F4"/>
<path d="M188.424 117.821C188.424 118.61 189.06 119.235 189.838 119.235C190.615 119.235 191.251 118.599 191.251 117.821C191.251 117.043 190.615 116.407 189.838 116.407C189.06 116.407 188.424 117.043 188.424 117.821Z" fill="#4285F4"/>
<path d="M570.998 159.33L487.303 174.364L570.291 155.771L570.998 159.33Z" fill="#4285F4"/>
<path d="M495.42 59.4999L433.32 103.977L493.241 56.6133L495.42 59.4999Z" fill="#4285F4"/>
<path d="M363.87 1.21356L339.836 63.3406L360.453 0L363.87 1.21356Z" fill="#4285F4"/>
<path d="M211.241 0L231.87 63.3406L207.836 1.21356L211.241 0Z" fill="#4285F4"/>
<path d="M78.453 56.6133L138.362 103.977L76.2734 59.4999L78.453 56.6133Z" fill="#4285F4"/>
<path d="M1.41398 155.783L84.3906 174.364L0.695312 159.33L1.41398 155.783Z" fill="#4285F4"/>
<path d="M108.521 218.523L103.891 221.351L105.753 226.452L101.629 222.918L97.3527 226.264L99.438 221.245L94.9375 218.217L100.345 218.653L101.841 213.433L103.102 218.712L108.521 218.523Z" fill="#73DC21"/>
<path d="M482.273 210.994L489.708 210.664L490.85 203.3L493.466 210.275L500.817 209.074L494.997 213.716L498.402 220.337L492.182 216.237L486.939 221.527L488.918 214.352L482.273 210.994Z" fill="#4285F4"/>
<path d="M426.819 11.7822L425.546 21.2668L434.583 24.3891L425.169 26.0975L424.993 35.6528L420.469 27.2404L411.314 30.0209L417.924 23.1048L412.445 15.2697L421.058 19.417L426.819 11.7822Z" fill="#4285F4"/>
<path d="M111.267 6.99843L118.771 13.0898L126.229 6.92773L122.753 15.9528L130.918 21.1487L121.257 20.6303L118.854 29.9971L116.356 20.6421L106.695 21.2548L114.824 15.9882L111.267 6.99843Z" fill="#4285F4"/>
<path d="M22.2695 94.9638C22.2695 94.0212 23.0353 93.2554 23.9778 93.2554C24.9204 93.2554 25.6861 94.0212 25.6861 94.9638C25.6861 95.9063 24.9204 96.6722 23.9778 96.6722C23.0353 96.6722 22.2695 95.9063 22.2695 94.9638Z" fill="#4285F4"/>
<path d="M246.115 83.3232C246.115 82.3806 246.881 81.6147 247.824 81.6147C248.766 81.6147 249.532 82.3806 249.532 83.3232C249.532 84.2657 248.766 85.0316 247.824 85.0316C246.881 85.0316 246.115 84.2657 246.115 83.3232Z" fill="#4285F4"/>
<path d="M505.543 21.7146C505.543 19.641 507.228 17.9443 509.313 17.9443C511.398 17.9443 513.083 19.6292 513.083 21.7146C513.083 23.8 511.398 25.4849 509.313 25.4849C507.228 25.4849 505.543 23.8 505.543 21.7146Z" fill="#4285F4"/>
<path d="M458.311 229.48C458.311 228.726 458.923 228.113 459.677 228.113C460.431 228.113 461.044 228.726 461.044 229.48C461.044 230.234 460.431 230.847 459.677 230.847C458.923 230.847 458.311 230.234 458.311 229.48Z" fill="#4285F4"/>
<path d="M189.977 214.069C189.977 213.127 190.742 212.361 191.685 212.361C192.627 212.361 193.393 213.127 193.393 214.069C193.393 215.012 192.627 215.778 191.685 215.778C190.742 215.778 189.977 215.012 189.977 214.069Z" fill="#4285F4"/>
<path d="M79.09 105.568L72.1978 110.069L75.2492 117.704L68.8519 112.543L62.5253 117.798L65.4589 110.116L58.5078 105.733L66.7195 106.145L68.7341 98.1689L70.8783 106.11L79.09 105.568Z" fill="#4285F4"/>
<path d="M279.656 66.8991L285.606 69.1023L288.94 63.6943L288.681 70.0449L294.854 71.5412L288.74 73.2614L289.223 79.5884L285.7 74.2982L279.821 76.7136L283.756 71.7297L279.656 66.8991Z" fill="#4285F4"/>
<path d="M498.014 93.2559L500.994 100.537L508.723 99.0409L502.715 104.131L506.532 111.023L499.828 106.876L494.456 112.626L496.329 104.979L489.189 101.645L497.048 101.067L498.014 93.2559Z" fill="#4285F4"/>
<path d="M554.141 223.66C554.141 222.717 554.906 221.952 555.849 221.952C556.791 221.952 557.557 222.717 557.557 223.66C557.557 224.603 556.791 225.368 555.849 225.368C554.906 225.368 554.141 224.603 554.141 223.66Z" fill="#4285F4"/>
<path d="M465.156 111.046C465.156 109.538 466.381 108.313 467.89 108.313C469.398 108.313 470.623 109.538 470.623 111.046C470.623 112.555 469.398 113.78 467.89 113.78C466.381 113.78 465.156 112.555 465.156 111.046Z" fill="#4285F4"/>
<path d="M378.221 90.5103C378.221 89.0022 379.446 87.7769 380.954 87.7769C382.462 87.7769 383.687 89.0022 383.687 90.5103C383.687 92.0184 382.462 93.2438 380.954 93.2438C379.446 93.2438 378.221 92.0184 378.221 90.5103Z" fill="#4285F4"/>
<path d="M428.197 68.6075C428.197 67.0994 429.423 65.874 430.931 65.874C432.439 65.874 433.664 67.0994 433.664 68.6075C433.664 70.1156 432.439 71.3409 430.931 71.3409C429.423 71.3409 428.197 70.1156 428.197 68.6075Z" fill="#4285F4"/>
<path d="M166.025 86.4103C166.025 84.1363 167.863 82.2983 170.137 82.2983C172.411 82.2983 174.249 84.1363 174.249 86.4103C174.249 88.6842 172.411 90.5223 170.137 90.5223C167.863 90.5223 166.025 88.6842 166.025 86.4103Z" fill="#4285F4"/>
<path d="M73.6113 193.533C73.6113 192.591 74.3771 191.825 75.3196 191.825C76.2621 191.825 77.0279 192.591 77.0279 193.533C77.0279 194.476 76.2621 195.242 75.3196 195.242C74.3771 195.242 73.6113 194.476 73.6113 193.533Z" fill="white"/>
</mask>
<g mask="url(#mask0_307_621)">
<path d="M611 -22H-23V457H611V-22Z" fill="url(#paint0_radial_307_621)"/>
</g>
<defs>
<radialGradient id="paint0_radial_307_621" cx="0" cy="0" r="1" gradientUnits="userSpaceOnUse" gradientTransform="translate(294 217.5) rotate(90) scale(239.5 317)">
<stop offset="0.604167" stop-color="#FDBA21"/>
<stop offset="0.84375" stop-color="#DCDCDC"/>
<stop offset="1" stop-color="#F3F3F3"/>
</radialGradient>
</defs>
</svg>
