<svg width="54" height="55" viewBox="0 0 54 55" fill="none" xmlns="http://www.w3.org/2000/svg">
<path d="M24.062 2.43332C25.1635 0.207451 28.3381 0.207447 29.4396 2.43332L53.1866 50.4194C54.1733 52.4134 52.7225 54.75 50.4978 54.75H3.00382C0.779064 54.75 -0.671701 52.4134 0.315053 50.4194L24.062 2.43332Z" fill="#121212"/>
<path d="M25.8539 14.8266C26.2201 14.0812 27.2827 14.0812 27.6489 14.8266L43.3638 46.809C43.6903 47.4735 43.2067 48.25 42.4663 48.25H11.0364C10.2961 48.25 9.81242 47.4735 10.1389 46.809L25.8539 14.8266Z" fill="#1C1C1C"/>
<path d="M25.8398 27.017C26.1942 26.2326 27.308 26.2326 27.6624 27.017L33.9074 40.8383C34.2065 41.5002 33.7224 42.2501 32.9961 42.2501H20.506C19.7797 42.2501 19.2957 41.5002 19.5947 40.8383L25.8398 27.017Z" fill="#141414"/>
<path d="M26.4705 32.7274C26.5692 32.4711 26.9318 32.4711 27.0305 32.7274L29.1916 38.3422C29.2673 38.5387 29.1222 38.75 28.9116 38.75H24.5893C24.3788 38.75 24.2337 38.5387 24.3094 38.3422L26.4705 32.7274Z" fill="#0A0A0A"/>
</svg>
