
<svg width="38" height="38" viewBox="0 0 38 38" fill="none" xmlns="http://www.w3.org/2000/svg">
    <g fill="#fff">
        <path
                d="M30.7215 23.1714L28.2673 20.7173C27.3046 19.7546 25.7356 19.7546 24.7729 20.7173C24.4847 21.007 24.2821 21.3506 24.1664 21.7148C23.2988 21.4123 22.2981 21.6087 21.6062 22.3006C21.2436 22.6631 21.0188 23.1113 20.9285 23.5799C20.1717 23.4722 19.3848 23.7303 18.8353 24.2797C18.6136 24.4997 18.4443 24.7531 18.3239 25.0239L16.9052 23.6052C15.971 22.671 14.3434 22.6742 13.4107 23.6052C12.9437 24.0722 12.6855 24.6929 12.6855 25.3532C12.6855 26.0134 12.9436 26.6341 13.4107 27.1012L19.4638 33.1542H18.2082C16.0264 33.1542 14.2499 34.9307 14.2499 37.1125C14.2499 37.5495 14.6046 37.9042 15.0416 37.9042H24.6208C29.3788 37.9043 33.2501 34.0331 33.2501 29.2752C33.2501 26.9698 32.3523 24.8038 30.7215 23.1714ZM24.6209 36.321H15.968C16.2958 35.3995 17.1761 34.7377 18.2068 34.7361H21.3735C21.6933 34.7361 21.9831 34.5429 22.105 34.2468C22.2285 33.9507 22.1605 33.6103 21.934 33.3839L14.5303 25.9802C14.3625 25.8139 14.2691 25.5891 14.2691 25.3532C14.2691 25.1172 14.3625 24.894 14.5303 24.7262C14.866 24.3921 15.4503 24.3905 15.7859 24.7262L20.8161 29.7564C21.1249 30.0652 21.6268 30.0652 21.9356 29.7564C22.0891 29.6012 22.1668 29.3986 22.1668 29.1959C22.1668 28.9932 22.0892 28.7906 21.9356 28.6354L19.9564 26.6562C19.7886 26.49 19.6967 26.2652 19.6967 26.0292C19.6967 25.7933 19.7885 25.57 19.9564 25.4022C20.2921 25.0665 20.8763 25.0665 21.2119 25.4022L22.3994 26.5897C22.7082 26.8985 23.2101 26.8985 23.5189 26.5897C23.6724 26.4345 23.7501 26.2319 23.7501 26.0292C23.7501 25.8265 23.6725 25.6239 23.5189 25.4703L22.7272 24.6786C22.5594 24.5124 22.4675 24.2875 22.4675 24.0516C22.4675 23.8157 22.5593 23.5924 22.7272 23.4246C23.0739 23.0779 23.636 23.0779 23.9828 23.4246L24.7744 24.2163C25.0832 24.525 25.5851 24.525 25.8939 24.2163C26.0474 24.0611 26.1251 23.8585 26.1251 23.6558C26.1251 23.4531 26.0491 23.2505 25.8939 23.0953C25.5471 22.7485 25.5471 22.1865 25.8939 21.8397C26.2406 21.493 26.8027 21.493 27.1494 21.8397L29.6036 24.2939C30.9336 25.6239 31.6667 27.3941 31.6667 29.2751C31.6668 33.1607 28.5064 36.321 24.6209 36.321Z"
        />
        <path
                d="M5.54169 21.2793C2.48581 21.2793 0 23.7652 0 26.821C0 29.8768 2.48581 32.3627 5.54169 32.3627C8.59757 32.3627 11.0834 29.8769 11.0834 26.821C11.0833 23.7652 8.5975 21.2793 5.54169 21.2793ZM5.54169 30.7793C3.35988 30.7793 1.58338 29.0028 1.58338 26.821C1.58338 24.6392 3.35988 22.8627 5.54169 22.8627C7.7235 22.8627 9.5 24.6392 9.5 26.821C9.5 29.0028 7.7235 30.7793 5.54169 30.7793Z"
        />
        <path
                d="M30.8127 9.0465C30.4105 8.86445 30.0448 8.61581 29.725 8.31026C29.4099 8.00626 28.908 8.01895 28.6055 8.33556C28.3031 8.65225 28.3142 9.15412 28.6308 9.455C29.0789 9.88406 29.5919 10.2308 30.1524 10.4873C30.2601 10.5348 30.3725 10.5586 30.4817 10.5586C30.7825 10.5586 31.0707 10.3876 31.2037 10.0963C31.3843 9.69725 31.2102 9.22856 30.8127 9.0465Z"
        />
        <path
                d="M30.3963 0.301635C29.8247 0.531194 29.2958 0.852635 28.8288 1.25794C28.4995 1.54294 28.463 2.04325 28.7496 2.37264C28.9063 2.55314 29.1264 2.64658 29.3481 2.64658C29.5318 2.64658 29.717 2.58327 29.8643 2.45502C30.2 2.16527 30.5768 1.93408 30.9868 1.76946C31.3921 1.60796 31.5885 1.14565 31.4254 0.740268C31.2624 0.336444 30.8017 0.138577 30.3963 0.301635Z"
        />
        <path
                d="M28.5389 6.00806C28.512 5.826 28.4993 5.63919 28.4993 5.446C28.4993 5.1895 28.5246 4.93931 28.5706 4.6955C28.6529 4.26481 28.3726 3.85001 27.9436 3.7677C27.5098 3.68695 27.0981 3.9672 27.0158 4.3947C26.9493 4.73514 26.916 5.085 26.916 5.44289C26.916 5.71208 26.9335 5.97489 26.9698 6.23294C27.0284 6.62719 27.3656 6.91219 27.7536 6.91219C27.7916 6.91219 27.8296 6.909 27.8676 6.90425C28.3014 6.8425 28.6006 6.44031 28.5389 6.00806Z"
        />
        <path
                d="M35.6752 0.933461C35.1717 0.572461 34.6144 0.301711 34.0206 0.12752C33.6026 0.00557817 33.1609 0.244711 33.0374 0.66427C32.9139 1.08546 33.1546 1.52402 33.5741 1.64752C33.9969 1.77102 34.3943 1.96421 34.7537 2.22071C34.893 2.32046 35.0529 2.36796 35.2129 2.36796C35.4599 2.36796 35.7021 2.2524 35.8589 2.03702C36.1137 1.6824 36.0314 1.1884 35.6752 0.933461Z"
        />
        <path
                d="M34.5984 8.77571C34.2279 9.01477 33.821 9.18896 33.3919 9.29346C32.9676 9.3964 32.7064 9.8239 32.8092 10.2498C32.8963 10.6123 33.2209 10.8546 33.5772 10.8546C33.6389 10.8546 33.7022 10.8483 33.7656 10.8324C34.3673 10.6851 34.9357 10.4413 35.455 10.1072C35.824 9.87125 35.9285 9.38045 35.6925 9.01314C35.4566 8.64427 34.9674 8.5414 34.5984 8.77571Z"
        />
        <path
                d="M37.7775 3.88481C37.654 3.46681 37.2185 3.22931 36.7942 3.34806C36.3747 3.47312 36.134 3.91176 36.2575 4.33131C36.3635 4.69076 36.4158 5.06601 36.4158 5.44601C36.4158 5.88932 36.343 6.32632 36.1988 6.7412C36.0563 7.15445 36.2748 7.6057 36.6881 7.7482C36.7751 7.7767 36.8623 7.79095 36.9478 7.79095C37.2755 7.79095 37.5827 7.58514 37.6967 7.25895C37.8978 6.67782 37.9992 6.06826 37.9992 5.44757C37.9992 4.9172 37.9247 4.39151 37.7775 3.88481Z"
        />
        <path
                d="M14.2434 12.905C13.8318 13.2565 13.4296 13.6143 13.0369 13.9753C12.7155 14.2714 12.6934 14.7733 12.9894 15.0948C13.1446 15.2658 13.3584 15.3513 13.5721 15.3513C13.7637 15.3513 13.9553 15.2832 14.1089 15.1438C14.4857 14.7955 14.8768 14.4503 15.2726 14.1083C15.6051 13.8233 15.6447 13.323 15.3597 12.9921C15.0747 12.658 14.5759 12.6232 14.2434 12.905Z"
        />
        <path
                d="M10.7428 16.2569C10.3612 16.6701 10.0018 17.0818 9.66929 17.4871C9.39223 17.8259 9.44129 18.3247 9.7801 18.6018C9.92579 18.7221 10.1047 18.7808 10.2804 18.7808C10.51 18.7808 10.7364 18.681 10.8947 18.491C11.2082 18.1078 11.5455 17.7215 11.9065 17.332C12.2025 17.0106 12.1835 16.5103 11.8622 16.2126C11.5392 15.9164 11.0404 15.9355 10.7428 16.2569Z"
        />
        <path
                d="M8.85866 19.9002C8.47072 19.6975 7.9926 19.848 7.78991 20.2359C7.48591 20.8202 7.26897 21.3744 7.14547 21.8857C7.04253 22.3117 7.30378 22.7392 7.72972 22.8405C7.79303 22.8563 7.85478 22.8627 7.91653 22.8627C8.27434 22.8627 8.59897 22.6189 8.68447 22.2562C8.77791 21.8715 8.94891 21.4377 9.19428 20.969C9.39541 20.581 9.2466 20.1029 8.85866 19.9002Z"
        />
        <path
                d="M27.7194 6.17589C27.645 5.74364 27.2365 5.45864 26.8059 5.52669C26.3087 5.61219 25.7498 5.76419 25.1449 5.98114C24.7332 6.12994 24.5195 6.58283 24.6667 6.99445C24.7839 7.31745 25.0879 7.5185 25.4125 7.5185C25.5012 7.5185 25.5914 7.50425 25.68 7.47256C26.1962 7.28731 26.6649 7.1575 27.0702 7.08937C27.5025 7.015 27.7922 6.6065 27.7194 6.17589Z"
        />
        <path
                d="M22.1588 7.35701C21.698 7.60557 21.2278 7.87632 20.7512 8.16607C20.3775 8.39406 20.2572 8.88012 20.4837 9.25381C20.6325 9.49925 20.8937 9.63537 21.1613 9.63537C21.3007 9.63537 21.4416 9.59737 21.5714 9.51981C22.0274 9.24431 22.4755 8.98625 22.9141 8.74875C23.2988 8.53975 23.4413 8.06001 23.2323 7.67526C23.0233 7.29214 22.5435 7.14801 22.1588 7.35701Z"
        />
        <path
                d="M18.0546 9.93627C17.6191 10.245 17.1853 10.5617 16.7546 10.8878C16.4047 11.1506 16.3351 11.6478 16.5995 11.9961C16.7546 12.2036 16.9921 12.3112 17.2312 12.3112C17.3975 12.3112 17.5653 12.2589 17.7078 12.1513C18.1258 11.8346 18.5469 11.5274 18.9681 11.2298C19.3259 10.9764 19.4114 10.4824 19.1581 10.1262C18.9048 9.76846 18.4124 9.68296 18.0546 9.93627Z"
        />
    </g>
</svg>
