<svg width="37" height="49" viewBox="0 0 37 49" fill="none" xmlns="http://www.w3.org/2000/svg">
<path fill-rule="evenodd" clip-rule="evenodd" d="M2 0C0.89543 0 0 0.89543 0 2V47C0 48.1046 0.895432 49 2 49H35C36.1046 49 37 48.1046 37 47V2C37 0.895431 36.1046 0 35 0H2ZM14.2929 13.2426C13.9024 12.8521 13.9024 12.219 14.2929 11.8284L17.8284 8.29289C18.219 7.90237 18.8521 7.90237 19.2426 8.29289L22.7782 11.8284C23.1687 12.219 23.1687 12.8521 22.7782 13.2426L19.2426 16.7782C18.8521 17.1687 18.219 17.1687 17.8284 16.7782L14.2929 13.2426ZM8.29289 17.8284C7.90237 18.219 7.90237 18.8521 8.29289 19.2426L11.8284 22.7782C12.219 23.1687 12.8521 23.1687 13.2426 22.7782L16.7782 19.2426C17.1687 18.8521 17.1687 18.219 16.7782 17.8284L13.2426 14.2929C12.8521 13.9024 12.219 13.9024 11.8284 14.2929L8.29289 17.8284ZM20.2929 17.8284C19.9024 18.219 19.9024 18.8521 20.2929 19.2426L23.8284 22.7782C24.219 23.1687 24.8521 23.1687 25.2426 22.7782L28.7782 19.2426C29.1687 18.8521 29.1687 18.219 28.7782 17.8284L25.2426 14.2929C24.8521 13.9024 24.219 13.9024 23.8284 14.2929L20.2929 17.8284ZM14.2929 23.8284C13.9024 24.219 13.9024 24.8521 14.2929 25.2426L17.8284 28.7782C18.219 29.1687 18.8521 29.1687 19.2426 28.7782L22.7782 25.2426C23.1687 24.8521 23.1687 24.219 22.7782 23.8284L19.2426 20.2929C18.8521 19.9024 18.219 19.9024 17.8284 20.2929L14.2929 23.8284ZM8.29289 31.2426C7.90237 30.8521 7.90237 30.219 8.29289 29.8284L11.8284 26.2929C12.219 25.9024 12.8521 25.9024 13.2426 26.2929L16.7782 29.8284C17.1687 30.219 17.1687 30.8521 16.7782 31.2426L13.2426 34.7782C12.8521 35.1687 12.219 35.1687 11.8284 34.7782L8.29289 31.2426ZM20.2929 29.8284C19.9024 30.219 19.9024 30.8521 20.2929 31.2426L23.8284 34.7782C24.219 35.1687 24.8521 35.1687 25.2426 34.7782L28.7782 31.2426C29.1687 30.8521 29.1687 30.219 28.7782 29.8284L25.2426 26.2929C24.8521 25.9024 24.219 25.9024 23.8284 26.2929L20.2929 29.8284ZM14.2929 37.2426C13.9024 36.8521 13.9024 36.219 14.2929 35.8284L17.8284 32.2929C18.219 31.9024 18.8521 31.9024 19.2426 32.2929L22.7782 35.8284C23.1687 36.219 23.1687 36.8521 22.7782 37.2426L19.2426 40.7782C18.8521 41.1687 18.219 41.1687 17.8284 40.7782L14.2929 37.2426Z" fill="#ffbd26"/>
</svg>
