<svg width="212" height="52" viewBox="0 0 212 52" fill="none" xmlns="http://www.w3.org/2000/svg">
<path fill-rule="evenodd" clip-rule="evenodd" d="M2 0C0.895416 0 0 0.895508 0 2V47C0 48.1045 0.895416 49 2 49H10C11.1046 49 12 48.1045 12 47V33.262L33.7846 51.5413C34.6307 52.2512 35.8922 52.1409 36.6022 51.2947L41.7445 45.1663C42.4545 44.3203 42.3442 43.0586 41.498 42.3486L27.507 30.6089L37.4945 19.5166C37.8824 19.0857 38.0484 18.5327 38 17.9976V2C38 0.895508 37.1046 0 36 0H2ZM12 13C12 11.8955 12.8954 11 14 11H24C25.1046 11 26 11.8955 26 13V14C26 14.5159 25.8046 14.9863 25.4837 15.3411L21.537 20.2898L21.532 20.2856C21.1651 20.7224 20.615 21 20 21H14C12.8954 21 12 20.1045 12 19V13Z" fill="white"/>
<path d="M60 2C60 0.895508 59.1046 0 58 0H50C48.8954 0 48 0.895508 48 2V32C48 32.6042 48.2679 33.1458 48.6914 33.5125C48.7218 33.5437 48.7533 33.5742 48.7861 33.604L64.8635 48.155L65.0854 48.4001C65.4878 48.8447 66.0443 49.0664 66.6002 49.0579C67.156 49.0664 67.7126 48.8447 68.115 48.4001L68.3369 48.155L84.4143 33.604C84.4472 33.5742 84.4789 33.5437 84.5093 33.5122C84.9326 33.1455 85.2004 32.604 85.2004 32V2C85.2004 0.895508 84.305 0 83.2004 0H75.2004C74.0958 0 73.2004 0.895508 73.2004 2V27.5681L66.6002 33.5417L60 27.5681V2Z" fill="white"/>
<path fill-rule="evenodd" clip-rule="evenodd" d="M177 0C175.895 0 175 0.895508 175 2V47C175 48.1045 175.895 49 177 49H210C211.105 49 212 48.1045 212 47V2C212 0.895508 211.105 0 210 0H177ZM189.293 13.2424C188.902 12.8521 188.902 12.2188 189.293 11.8284L192.828 8.29272C193.219 7.90234 193.852 7.90234 194.243 8.29272L197.778 11.8284C198.169 12.2188 198.169 12.8521 197.778 13.2424L194.243 16.7781C193.852 17.1685 193.219 17.1685 192.828 16.7781L189.293 13.2424ZM183.293 17.8284C182.902 18.2188 182.902 18.8521 183.293 19.2424L186.828 22.7781C187.219 23.1685 187.852 23.1685 188.243 22.7781L191.778 19.2424C192.169 18.8521 192.169 18.2188 191.778 17.8284L188.243 14.2927C187.852 13.9023 187.219 13.9023 186.828 14.2927L183.293 17.8284ZM195.293 17.8284C194.902 18.2188 194.902 18.8521 195.293 19.2424L198.828 22.7781C199.219 23.1685 199.852 23.1685 200.243 22.7781L203.778 19.2424C204.169 18.8521 204.169 18.2188 203.778 17.8284L200.243 14.2927C199.852 13.9023 199.219 13.9023 198.828 14.2927L195.293 17.8284ZM189.293 23.8284C188.902 24.2188 188.902 24.8521 189.293 25.2424L192.828 28.7781C193.219 29.1685 193.852 29.1685 194.243 28.7781L197.778 25.2424C198.169 24.8521 198.169 24.2188 197.778 23.8284L194.243 20.2927C193.852 19.9023 193.219 19.9023 192.828 20.2927L189.293 23.8284ZM183.293 31.2424C182.902 30.8521 182.902 30.2188 183.293 29.8284L186.828 26.2927C187.219 25.9023 187.852 25.9023 188.243 26.2927L191.778 29.8284C192.169 30.2188 192.169 30.8521 191.778 31.2424L188.243 34.7781C187.852 35.1685 187.219 35.1685 186.828 34.7781L183.293 31.2424ZM195.293 29.8284C194.902 30.2188 194.902 30.8521 195.293 31.2424L198.828 34.7781C199.219 35.1685 199.852 35.1685 200.243 34.7781L203.778 31.2424C204.169 30.8521 204.169 30.2188 203.778 29.8284L200.243 26.2927C199.852 25.9023 199.219 25.9023 198.828 26.2927L195.293 29.8284ZM189.293 37.2424C188.902 36.8521 188.902 36.2188 189.293 35.8284L192.828 32.2927C193.219 31.9023 193.852 31.9023 194.243 32.2927L197.778 35.8284C198.169 36.2188 198.169 36.8521 197.778 37.2424L194.243 40.7781C193.852 41.1685 193.219 41.1685 192.828 40.7781L189.293 37.2424Z" fill="#FFBC21"/>
<path fill-rule="evenodd" clip-rule="evenodd" d="M98 0C96.895 0 96 0.895508 96 2V47C96 48.1045 96.895 49 98 49H115H124C125.105 49 126 48.1045 126 47V39C126 37.8955 125.105 37 124 37H115H108V2C108 0.895508 107.105 0 106 0H98Z" fill="white"/>
<path fill-rule="evenodd" clip-rule="evenodd" d="M137 0C135.895 0 135 0.895508 135 2V47C135 48.1045 135.895 49 137 49H154H163C164.105 49 165 48.1045 165 47V39C165 37.8955 164.105 37 163 37H154H147V2C147 0.895508 146.105 0 145 0H137Z" fill="white"/>
</svg>
